<?xml version="1.0" encoding="UTF-8"?>
<!DOCTYPE svg PUBLIC "-//W3C//DTD SVG 1.1//EN" "http://www.w3.org/Graphics/SVG/1.1/DTD/svg11.dtd">
<svg version="1.1" xmlns="http://www.w3.org/2000/svg" xmlns:xlink="http://www.w3.org/1999/xlink" x="0" y="0" width="170" height="170" viewBox="0, 0, 170, 170">
  <g id="Layer_1" transform="translate(0, 0)">
    <g>
      <path d="M32.182,5.5 L138.818,5.5 C153.554,5.5 165.5,17.439 165.5,32.167 L165.5,138.833 C165.5,153.561 153.554,165.5 138.818,165.5 L32.182,165.5 C17.446,165.5 5.5,153.561 5.5,138.833 L5.5,32.167 C5.5,17.439 17.446,5.5 32.182,5.5 z" fill="#000000"/>
      <path d="M32.182,5.5 L138.818,5.5 C153.554,5.5 165.5,17.439 165.5,32.167 L165.5,138.833 C165.5,153.561 153.554,165.5 138.818,165.5 L32.182,165.5 C17.446,165.5 5.5,153.561 5.5,138.833 L5.5,32.167 C5.5,17.439 17.446,5.5 32.182,5.5 z" fill-opacity="0" stroke="#000000" stroke-width="0"/>
    </g>
    <g>
      <path d="M138.118,155.693 L138.118,12.735 L110.684,12.735 L110.684,65.46 C102.539,54.958 90.965,49.6 78.749,49.6 C52.386,49.6 32.882,70.175 32.882,104.04 C32.882,138.547 52.6,158.265 78.749,158.265 C91.18,158.265 102.539,152.692 110.684,142.405 L110.684,155.693 z M87.107,134.046 C71.676,134.046 60.959,121.829 60.959,104.04 C60.959,86.036 71.676,73.819 87.107,73.819 C96.324,73.819 106.183,78.749 110.684,85.607 L110.684,122.258 C106.183,129.116 96.324,134.046 87.107,134.046 z" fill="#FFFFFF"/>
      <path d="M138.118,155.693 L138.118,12.735 L110.684,12.735 L110.684,65.46 C102.539,54.958 90.965,49.6 78.749,49.6 C52.386,49.6 32.882,70.175 32.882,104.04 C32.882,138.547 52.6,158.265 78.749,158.265 C91.18,158.265 102.539,152.692 110.684,142.405 L110.684,155.693 z M87.107,134.046 C71.676,134.046 60.959,121.829 60.959,104.04 C60.959,86.036 71.676,73.819 87.107,73.819 C96.324,73.819 106.183,78.749 110.684,85.607 L110.684,122.258 C106.183,129.116 96.324,134.046 87.107,134.046 z" fill-opacity="0" stroke="#FFFFFF" stroke-width="1"/>
    </g>
  </g>
</svg>
